<?xml version="1.0" encoding="UTF-8"?>
<svg width="110px" height="25px" viewBox="0 0 110 25" version="1.1" xmlns="http://www.w3.org/2000/svg" xmlns:xlink="http://www.w3.org/1999/xlink">
    <!-- Generator: Sketch 54 (76480) - https://sketchapp.com -->
    <title>Logo</title>
    <desc>Created with Sketch.</desc>
    <g id="Symbols" stroke="none" stroke-width="1" fill="none" fill-rule="evenodd">
        <g id="Header---navigation" transform="translate(-30.000000, -16.000000)">
            <g id="Logo" transform="translate(30.484919, 16.103239)">
                <path d="M10.67964,12.7967456 C10.67964,10.8518812 9.17445003,9.35817755 7.24306244,9.35817755 C5.8513146,9.35817755 4.60144118,10.1188521 4.00493679,11.1055344 L4.00493679,14.4879567 C4.60144118,15.5025694 5.82259508,16.2353136 7.24306244,16.2353136 C9.17445003,16.2353136 10.67964,14.7698252 10.67964,12.7967456 M14.5989926,12.7967456 C14.5989926,16.7990506 11.7592067,20.0121808 8.12360287,20.0121808 C6.36252202,20.0121808 4.68673815,19.2230059 4.00493679,18.0955318 L4.00493679,24.2969244 L-1.21236354e-12,24.2969244 L-1.21236354e-12,5.89110918 L4.00493679,5.89110918 L4.00493679,7.52588963 C4.68673815,6.39841553 6.36252202,5.60924066 8.12360287,5.60924066 C11.7592067,5.60924066 14.5989926,8.7944405 14.5989926,12.7967456" id="Fill-6" fill="#1A1A1B"></path>
                <polygon id="Fill-8" fill="#1A1A1B" points="16.8436527 19.7305973 20.8483023 19.7305973 20.8483023 8.55010691e-05 16.8436527 8.55010691e-05"></polygon>
                <path d="M33.5730591,14.5160866 L33.5730591,11.1336643 C32.9768419,10.1190516 31.7269685,9.35809205 30.3355079,9.35809205 C28.3754008,9.35809205 26.8699236,10.8235804 26.8699236,12.7966601 C26.8699236,14.7697397 28.3754008,16.2352281 30.3355079,16.2352281 C31.7269685,16.2352281 32.9768419,15.5024839 33.5730591,14.5160866 L33.5730591,14.5160866 Z M37.5782831,5.89102368 L37.5782831,19.7305118 L33.5730591,19.7305118 L33.5730591,18.0957313 C32.891545,19.2232054 31.2157611,20.0120953 29.4546802,20.0120953 C25.8193636,20.0120953 22.9508582,16.7989651 22.9508582,12.7966601 C22.9508582,8.794355 25.8193636,5.60915516 29.4546802,5.60915516 C31.1873288,5.60915516 32.891545,6.39861503 33.5730591,7.52580413 L33.5730591,5.89102368 L37.5782831,5.89102368 Z" id="Fill-10" fill="#1A1A1B"></path>
                <path d="M53.3317429,11.8947093 L53.3317429,19.7305973 L49.3270933,19.7305973 L49.3270933,12.5713077 C49.3270933,10.6546588 48.2759589,9.55540001 46.6286074,9.55540001 C45.5211828,9.55540001 44.4131838,10.1752828 43.8451117,11.1337498 L43.8451117,19.7305973 L39.8401749,19.7305973 L39.8401749,5.89110918 L43.8451117,5.89110918 L43.8451117,7.52588963 C44.61221,6.34198482 46.0892548,5.60924066 47.6513094,5.60924066 C51.1731839,5.60924066 53.3317429,8.00498062 53.3317429,11.8947093" id="Fill-11" fill="#1A1A1B"></path>
                <path d="M69.1148699,11.8947093 L69.1148699,19.7305973 L65.1102203,19.7305973 L65.1102203,12.5713077 C65.1102203,10.6546588 64.059086,9.55540001 62.4117344,9.55540001 C61.3043098,9.55540001 60.1963108,10.1752828 59.6282387,11.1337498 L59.6282387,19.7305973 L55.6233019,19.7305973 L55.6233019,5.89110918 L59.6282387,5.89110918 L59.6282387,7.52588963 C60.3953371,6.34198482 61.8720947,5.60924066 63.4344365,5.60924066 C66.956311,5.60924066 69.1148699,8.00498062 69.1148699,11.8947093" id="Fill-12" fill="#1A1A1B"></path>
                <path d="M81.0517068,11.2183673 C80.8814001,9.83724004 79.6030943,8.82234235 78.1260495,8.82234235 C76.4505528,8.82234235 75.342841,9.72437863 74.973508,11.2183673 L81.0517068,11.2183673 Z M84.9432015,13.754899 L74.9169306,13.754899 C75.2859764,15.6436177 76.5927144,16.630015 78.4956697,16.630015 C79.7452559,16.630015 81.0517068,16.0662779 81.5347691,15.2203874 L84.6588783,17.109106 C83.6364634,18.9413939 81.3075977,20.0121523 78.4103727,20.0121523 C74.3204262,20.0121523 71.0823005,16.8554528 71.0823005,12.7402863 C71.0823005,8.70976594 74.2632743,5.60921216 78.3250758,5.60921216 C82.102554,5.60921216 85.0563564,8.51225847 85.0563564,12.2047647 C85.0563564,12.6841406 85.0282113,13.2193773 84.9432015,13.754899 L84.9432015,13.754899 Z" id="Fill-13" fill="#1A1A1B"></path>
                <path d="M97.5788704,14.5160866 L97.5788704,11.1336643 C96.982366,10.1190516 95.7327798,9.35809205 94.3410319,9.35809205 C92.3809248,9.35809205 90.8757349,10.8235804 90.8757349,12.7966601 C90.8757349,14.7697397 92.3809248,16.2352281 94.3410319,16.2352281 C95.7327798,16.2352281 96.982366,15.5024839 97.5788704,14.5160866 L97.5788704,14.5160866 Z M101.58352,3.73034936e-14 L101.58352,19.7305118 L97.5788704,19.7305118 L97.5788704,18.0957313 C96.897069,19.2232054 95.2215724,20.0120953 93.4604915,20.0120953 C89.8248877,20.0120953 86.9563823,16.7989651 86.9563823,12.7966601 C86.9563823,8.794355 89.8248877,5.60915516 93.4604915,5.60915516 C95.1928528,5.60915516 96.897069,6.39861503 97.5788704,7.52580413 L97.5788704,3.73034936e-14 L101.58352,3.73034936e-14 Z" id="Fill-14" fill="#1A1A1B"></path>
                <circle id="Oval" fill="#FE7B6C" cx="106.956941" cy="16.951025" r="2.55813953"></circle>
            </g>
        </g>
    </g>
</svg>